<?xml version="1.0" encoding="utf-8"?>
<!DOCTYPE svg PUBLIC "-//W3C//DTD SVG 1.1//EN" "http://www.w3.org/Graphics/SVG/1.1/DTD/svg11.dtd">
<svg version="1.1"
	 xmlns="http://www.w3.org/2000/svg" xmlns:xlink="http://www.w3.org/1999/xlink" xmlns:a="http://ns.adobe.com/AdobeSVGViewerExtensions/3.0/"
	 x="0px" y="0px" width="480px" height="480px" viewBox="0.25 0.25 480 480"
	 overflow="visible" enable-background="new 0.25 0.25 640 480" xml:space="preserve">
<g>
	<path d="M640.25,303.25c0,38,0,76,0,114c-4.37-0.7-0.65-3.28-4-5c-2.82,0.51-4.49,2.18-5,5c-1.48-0.44,0.39-1.28,0-3
		c-0.66,1.12-4.63,3.88-2,5c-1.22,3.03-3.82-0.71-5-1c-0.34,2.01,0.2,3.13,2,3c-6.06,0.86-9.96,2.2-17,2c3.25,2.43-1.33,2.19-2,5
		c0.12,4.3,4.26-1.68,4,3c-9.27-0.49-13.01-5.31-20-10c2.76,2.38,1.45,9.02,4,7c-1.01,4.8,0.66,14.66,3,21c7.58-3-1.06-12.67,1-16
		c16.93,6.43,27.98,23.99,31,41c1.51,1.83,4.31,2.35,6,4c-0.23,1.44-2.98,0.35-3,2c-117.67,0-235.33,0-353,0
		c13.13-16.61,34.96-27.39,52-44c3.88-3.78,6.87-9.87,11-14c3.54-3.54,8.14-5.51,11-9c10.09-12.29,16.91-28.96,23-46
		c5.82-16.27,17.2-33.26,19-50c1.9-17.65-5.48-29.77-10-44c26.88-7.04,57.74-9.89,85-1c24.91,17.75,40.62,44.71,49,79
		c15.53-2.13,31.29-4.05,44-9c-0.11-8.22-6.26-10.41-6-19c-22.25-33.75-37.46-74.54-64-104c2.2-2.1,0.21-4.45-1-6
		c-32.6-14.26-78.14,0.61-112,4c0.63-12.03,2.76-22.57,2-36c23.46-1.79,50.87-9.03,79-9c14.35,0.02,29.9,3.78,43,1
		c10.53-2.24,19.19-13.87,29-16c0.57,5.32-6.28,5.18-3,8c6.72-7.91,12.63-16.45,22-20c-1.92,0.72,2.37,2.72,2.95-0.59
		c-0.79,6.45-3.181,14.72-0.95,17.59c2.52-5.64-0.1,9.12,4,2c-0.25,5.43-0.53,6.29-1,10c4.25-4.09,4.15,7.72,4,11
		c3.19-0.83,3.94,9.37,9,10c-3.46,3.24,5.48,3.13,2,7c9.74,5.3,7.52,9.89,19,16c7.62,15.9,23.42,29.96,28,52
		c0.75,4.63-3.82,1.39-4,3c6.89,2.67,3.42,8.4,5,14c1.51-2.23,3.59,6.38,1,7C628.97,296.2,631.85,307.53,640.25,303.25z"/>
	<path d="M176.18,233.32c-4.99,4.48-1.5,9.49-6.93,13.93c5.17,15.96,19.42,20.9,15,38c5.76,3.43,5.95,6.29,8,13
		c2.19-6.25,2.06,2.59,6,3c2.93-0.85-0.6-3.22,0-5c1.91,1.88,1.81-0.59,5,0c-1.02,11.41,2.43,28.42,2,38c2.4,0.4-0.55-4.55,3-3
		c2.95,6.69,9.93,13.65,18,12c-1.98,2.32-1.98,2.68,0,5c1.77-0.23,5.01,1.01,4-2c1.16,2.51,2.84,4.49,4,7c-2.13-0.47-1.9,1.43-2,3
		c-5.97-1.42-6.93,2.47-12-1c2.6,4.12,1.74,4.62,0,9c0.99,4.68,7.19,4.14,7,10c8.09,5.8,14.15,5.69,20,13c7.83,2.4,11.8-4.77,19,0
		c6.8-5.53,14.12,1.99,20-2c1.75,3-0.32,5.07-3,3c0.85,5.09-4.64,3.62-7,5c-8.2,4.81-15.98,12.08-23,19
		c-93.46-4.28-122.16-79.13-143-166c-6.97-29.05-13.07-75.43-5-107c2.7-0.3,1.79-4.21,4-5c0.73-3.06-1.73-2.94-1-6
		c2.69,0.69,1.93-2.07,3-3c-0.76,0.38-1.52,0.75-1.86,1.55c3.03-9.8,7.04-10.81,8.86-21.55c2.72,4.75,2.17-2.43,3,0
		c3.9-9.73,18.74-16.38,25-27c2.49,0.15,3.1-1.57,5-2c5.94-10.34,18.63-17.56,28-27c4.77-4.81,7.45-11,11-13
		c9.09-5.1,26.14-3.31,38-4c11.97-0.69,29.1,3.15,42,7c6.08,1.81,12,6.47,18,8c16.15,4.12,32.07,4.74,43,13
		c-4.67-3.28-15.68,1.59-18-5c-2.34,3.07-0.97,0.78-3-1c-1.54,5.98,8.24,7.23,14,10c9.6,4.61,18.11,10.56,27,15
		c-0.26,7.39,9.71,11.72,12,22c4.71-3.49,7.68,21.04,7,35c-0.38,7.74-2.2,14.86-2,20c2.12-2.55,1.68-7.66,3-11
		c1.72,6.51-1.5,15.6,4,20c1.7,76.05-27.08,136.19-59,185c9.84-28.74,20.73-64.59,24-105c2.24-27.72-7.04-73.66-13-93
		c-6.9-22.39-28.96-46.6-53-48c-19.11-1.11-34.36,5.01-49,8c-2.19,0.15-2.15,2.52-2,5c-2.56-4.75-10.84,0.71-15-1
		c-0.83,2.83,1.41,2.59,1,5c-0.96-1.69-3.14-2.95-5-1c0.16,1.17,1.82,0.84,3,1c-0.69,1.98-2.67,2.67-5,3c4.24,1.72-1.87,2.01,1,4
		c-1.65,4.08-4.24,1.03-6,5c2.84,2.67,1.25,1.08,4,3c-1.35,3.98-5.59,5.08-9,7c0.78,5.91,0.46,6.27-2,10c1.94-0.15,1.39,1.73,3,4
		c-0.44,1.48-1.28-0.39-3,0c-1.55,4.22,5.55-0.22,4,4c-0.8-0.53-1.62-1.04-3-1c8.52,5.29,19.66,7.2,30,8c-1.07,2.53,2.48,6.08,2,2
		c4.33,2,2.06,10.61,8,11c-1.57,9.42,14.95,18.62,7,30c11.32,15.75-12.85,53.23,15,58c0.83,2.15-0.77,6.65,2,9
		c-12.25,1.82-16.41,10.28-30,7c0.59-2.05,1.92-4.17,4-2c0.19-8.55-6.18-1.3-8-5c0.16-1.17,1.82-0.84,3-1
		c-3.45-7.76-4.34-20.47-4-27c-7.46,0.83,2.58-4.22-4-6c2.48-6.31,1.17-8.77,2-15c-6.24-4.4-20.81-4.81-29,1
		c0.25-1.09,1.99-0.68,2-2c-1.05-2.28-4.52,4.45-7,1C186.4,232.53,174.98,234.64,176.18,233.32z"/>
	<path d="M103.25,253.25c1.62,7.28-0.53,10.47,1,19c-35.56,7.78-69.15,17.51-104,26c0-11.67,0-23.33,0-35
		c18.92-5.74,40.22-9.11,60-14c-17.02,9.31-36.12,16.55-54,25c10.46-1.55,23.68-8.98,36-12c4.02-0.69,2.46,4.21,6,4
		C67.31,262.65,83.24,255.91,103.25,253.25z"/>
	<path d="M272.25,309.09c8.91-0.68,36.49,0.29,20.99,5.45c-12.35,0.44-16.6,1.29-29.99,5.71c-9.92,3.27-17.06,4.44-29.5,4.25
		c-5.5-1-16.36,2.28-17.5-5.25c9.95-1.78,19.33-2.56,38-10C260.4,306.8,265.07,309.64,272.25,309.09z"/>
	<path d="M556.2,144.66c0.02-0.14,0.03-0.28,0.05-0.41C556.24,144.4,556.22,144.53,556.2,144.66z"/>
	<path d="M370.25,109.25c4.68,3.9,4.08,17.04,3,21C371.27,122.29,372.06,117.56,370.25,109.25z"/>
	<path d="M372.25,132.25c2.26,0.74,0.39,5.61,1,8C369.91,138.36,372.62,136.21,372.25,132.25z"/>
	<path d="M339.25,67.25c4.77,0.99,19.59,10.95,18,15C351.28,75.06,345.83,72.7,339.25,67.25z"/>
	<path d="M352.25,343.25c1.68,9.17-5.47,9.65-6,14C338.45,353.42,347.61,344.24,352.25,343.25z"/>
	<path d="M320.25,172.25c-17.92-0.87-23.86,6.96-33,13c-0.93,5.26,7.2,1.47,9,4c-0.85,1.48-2.52,2.15-5,2
		c3.26,8.07,16.58,6.08,26,8c-2.91,11.06-20.85,5.32-27,9c-0.47,2.13,1.43,1.9,3,2c-8.03,3.02-21.79-1.05-23-11c-1.33,0-2.67,0-4,0
		c-3.53-10.6,5.11-15.7,13-18c-5.69,0.29-7.67-2.83-14-4c1.79-0.32,0.44-4.28,2-6c0.57-0.63,1.17,1.94,1,2
		c6.94-2.48,6.94-8.83,15-10C295.09,161.53,313.45,166.21,320.25,172.25z"/>
	<path d="M278.25,264.25c-3.07-0.11-6.69,5.63-12,3C266.03,259.1,277.8,252.75,278.25,264.25z"/>
	<path d="M271.25,329.25c-0.16,1.16,0.22,1.78,1,2c-1.92,2.08-3.83,4.17-7,5c-0.46,6.46,4.06,7.94,6,12c-1.25,4.23-3.49,2.27-2,8
		c-3.54-1.47-4.97-0.37-8,1c0.18-3.83-0.82-0.36-3-1c-0.75-3.58-2.11-6.55-7-6c1.62-2.38,2.75-5.25,6-6c-3.5-0.42-4.24-5.71,0-6
		c-3.57-3.31-1.43-6.61-8-6C255.48,327.3,267.39,333.52,271.25,329.25z"/>
	<path d="M205.25,454.25c-5.9,7.47-7.77,12.45-15,15c0.58,5.61-0.26,6.43,1,11c-55.67,0-111.33,0-167,0
		c17.5-29.17,46.96-46.37,74-66c-3.65-2.93-6.85,3.11-12,2c3.06-9.15,13.82-11.7,21-16c12.61-7.54,26.02-14.65,41-19
		c11.87,17.13,14.47,43.53,35,52c0,1.33,0,2.67,0,4C192.01,441.38,196.94,452.79,205.25,454.25z"/>
	<path d="M109.39,126.8c-0.05,0.15-0.09,0.3-0.14,0.45C109.28,127.08,109.33,126.93,109.39,126.8z"/>
	<path d="M99.25,149.25c1.75,1.18-0.15,7.12-3,7c0.03,0.97,1.22,0.78,2,1c-0.9,2.1-0.03,5.97-4,5c-0.18-0.85,0.39-0.94,1-1
		c-0.03-0.97-1.22-0.78-2-1c3.93-2.4,1.47-3.53,2-9C97.11,151.11,98.59,150.59,99.25,149.25z"/>
	<path d="M95.25,209.25c3.46,6.88,3.34,17.32,6,25c-1.72,2.64-11.04,2.92-14,1C89.15,231.15,90.69,216.51,95.25,209.25z"/>
</g>
</svg>
