<svg xmlns="http://www.w3.org/2000/svg" viewBox="0 0 483 483" width="40" height="40"><path fill="#c2c2c2" d="M424.3 57.8H59.1a59.2 59.2 0 0 0-59.1 59v249.6a59.2 59.2 0 0 0 59.1 59.2h365.1a59.2 59.2 0 0 0 59.1-59.2V117a59 59 0 0 0-59-59.3zm32.1 308.6a32.1 32.1 0 0 1-32.1 32.2H59.1A32.1 32.1 0 0 1 27 366.4V117a32.1 32.1 0 0 1 32.1-32.2h365.1a32.1 32.1 0 0 1 32.1 32.1v249.5h.1z"/><path fill="#c2c2c2" d="M304.8 238.6l118.2-106c5.5-5 6-13.5 1-19.1-5-5.5-13.5-6-19.1-1l-163 146.3-31.8-28.5-.2-.3a20 20 0 0 0-2.2-1.9L78.3 112.3c-5.6-5-14.1-4.5-19.1 1.1-5 5.6-4.5 14.1 1.1 19.1l119.6 107L60.8 350.9a13.6 13.6 0 0 0 18.5 19.9l120.9-113.2L233 287a13.5 13.5 0 0 0 18 0l33.7-30.3 120.2 114.2a13.5 13.5 0 0 0 18.6-19.6L304.8 238.6z"/></svg>
